<?xml version="1.0" encoding="UTF-8"?><svg id="Layer_2" xmlns="http://www.w3.org/2000/svg" viewBox="0 0 593.88 593.88"><g id="Layer_1-2"><path d="m0,296.94V0h5.03v135.89h45.3v90.59h130.86v-40.26h-90.59v-5.03h95.63v45.3h85.56v-45.3h45.3v-85.56h-45.3v-5.03h45.3v-40.26h-85.56v85.56h45.3v5.03h-45.3v45.3h-5.03v-45.3H90.59v-45.3h-45.3v-5.03h140.92v5.03h-90.59v40.26h130.86V50.33H45.3v-5.03h276.81v90.59h85.56v-40.26h-45.3v-5.03h90.59v-45.3h95.63v231.51h-45.3v45.3h-45.3v45.3h-5.03v-50.33h45.3v-45.3h45.3V50.33h-85.56v40.26h45.3v50.33h-5.03v-45.3h-85.56v85.56h40.26v-45.3h5.03v45.3h45.3v50.33h-5.03v-45.3h-90.59v-45.3h-85.56v45.3h-45.3v90.59h-95.63v-5.03h90.59v-40.26h-130.86v85.56h90.59v231.51h-95.63v-5.03h45.3v-45.3h5.03v45.3h40.26v-221.45h-85.56v40.26h45.3v95.63h-45.3v45.3h-5.03v-45.3h-40.26v90.59h-50.33v-5.03h45.3v-90.59h90.59v-85.56h-45.3v-90.59h-45.3v-5.03h45.3v-40.26H50.33v85.56h45.3v50.33h-5.03v-45.3h-45.3v-181.18H5.03v221.45h45.3v45.3h90.59v5.03H50.33v45.3h-5.03v-90.59H5.03v130.86h45.3v5.03H5.03v85.56h45.3v5.03H0v-296.94Z"/><path d="m90.59,591.37v-2.52h181.18v-45.3h50.33v5.03h-45.3v40.26h176.15v-85.56h-85.56v40.26h45.3v5.03h-50.33v-45.3h-90.59v-95.63h5.03v90.59h176.15v-45.3h5.03v45.3h45.3v5.03h-45.3v85.56h130.86v-176.15h-40.26v135.89h-50.33v-5.03h45.3v-85.56h-45.3v-5.03h45.3v-45.3h45.3v-85.56h-40.26v45.3h-45.3v45.3h-90.59v45.3h-95.63v-5.03h45.3v-181.18h5.03v181.18h40.26v-181.18h45.3v-40.26h-130.86v181.18h-5.03v-45.3h-45.3v-5.03h45.3v-40.26h-45.3v-5.03h45.3v-90.59h45.3v-45.3h5.03v45.3h90.59v50.33h-45.3v130.86h85.56v-45.3h45.3v-45.3h45.3V5.03h-176.15v45.3h-5.03V5.03h-40.26v45.3h-5.03V5.03H45.3V0h548.59v593.88H90.59v-2.52Z"/></g></svg>